<mxfile host="app.diagrams.net" modified="2021-04-04T14:03:58.682Z" agent="5.0 (Windows NT 10.0; Win64; x64) AppleWebKit/537.36 (KHTML, like Gecko) Chrome/89.0.4389.114 Safari/537.36" etag="-ANDjHnf8Pxis7oOOh38" version="14.4.8" type="github">
  <diagram id="97RPFXWywEXOEcgeAcqq" name="Page-1">
    <mxGraphModel dx="-454" dy="677" grid="1" gridSize="10" guides="1" tooltips="1" connect="1" arrows="1" fold="1" page="1" pageScale="1" pageWidth="827" pageHeight="1169" math="0" shadow="0">
      <root>
        <mxCell id="0" />
        <mxCell id="1" parent="0" />
        <mxCell id="lbw-vLr5cqSRCwrvtk9y-1" value="" style="ellipse;whiteSpace=wrap;html=1;aspect=fixed;fillColor=#000000;" vertex="1" parent="1">
          <mxGeometry x="1356" y="80" width="21" height="21" as="geometry" />
        </mxCell>
        <mxCell id="lbw-vLr5cqSRCwrvtk9y-2" value="" style="endArrow=classic;html=1;exitX=0.5;exitY=1;exitDx=0;exitDy=0;" edge="1" parent="1" source="lbw-vLr5cqSRCwrvtk9y-1" target="lbw-vLr5cqSRCwrvtk9y-4">
          <mxGeometry width="50" height="50" relative="1" as="geometry">
            <mxPoint x="1079" y="286" as="sourcePoint" />
            <mxPoint x="1367" y="187" as="targetPoint" />
          </mxGeometry>
        </mxCell>
        <mxCell id="lbw-vLr5cqSRCwrvtk9y-3" style="edgeStyle=orthogonalEdgeStyle;rounded=0;orthogonalLoop=1;jettySize=auto;html=1;" edge="1" parent="1" source="lbw-vLr5cqSRCwrvtk9y-4" target="lbw-vLr5cqSRCwrvtk9y-7">
          <mxGeometry relative="1" as="geometry" />
        </mxCell>
        <mxCell id="lbw-vLr5cqSRCwrvtk9y-4" value="Click on search box" style="rounded=1;whiteSpace=wrap;html=1;fillColor=#dae8fc;strokeColor=#6c8ebf;" vertex="1" parent="1">
          <mxGeometry x="1303" y="135" width="131" height="68" as="geometry" />
        </mxCell>
        <mxCell id="lbw-vLr5cqSRCwrvtk9y-6" style="edgeStyle=orthogonalEdgeStyle;rounded=0;orthogonalLoop=1;jettySize=auto;html=1;" edge="1" parent="1" source="lbw-vLr5cqSRCwrvtk9y-7" target="lbw-vLr5cqSRCwrvtk9y-9">
          <mxGeometry relative="1" as="geometry" />
        </mxCell>
        <mxCell id="lbw-vLr5cqSRCwrvtk9y-7" value="Type product name" style="rounded=1;whiteSpace=wrap;html=1;fillColor=#dae8fc;strokeColor=#6c8ebf;" vertex="1" parent="1">
          <mxGeometry x="1303" y="233" width="131" height="68" as="geometry" />
        </mxCell>
        <mxCell id="lbw-vLr5cqSRCwrvtk9y-16" style="edgeStyle=orthogonalEdgeStyle;rounded=0;orthogonalLoop=1;jettySize=auto;html=1;entryX=0.5;entryY=0;entryDx=0;entryDy=0;" edge="1" parent="1" source="lbw-vLr5cqSRCwrvtk9y-9" target="lbw-vLr5cqSRCwrvtk9y-5">
          <mxGeometry relative="1" as="geometry" />
        </mxCell>
        <mxCell id="lbw-vLr5cqSRCwrvtk9y-9" value="Click on search button" style="rounded=1;whiteSpace=wrap;html=1;fillColor=#dae8fc;strokeColor=#6c8ebf;" vertex="1" parent="1">
          <mxGeometry x="1303" y="334" width="131" height="68" as="geometry" />
        </mxCell>
        <mxCell id="lbw-vLr5cqSRCwrvtk9y-5" value="" style="ellipse;whiteSpace=wrap;html=1;aspect=fixed;fillColor=#000000;" vertex="1" parent="1">
          <mxGeometry x="1358" y="440" width="21" height="21" as="geometry" />
        </mxCell>
      </root>
    </mxGraphModel>
  </diagram>
</mxfile>
